<svg id="Layer_1" data-name="Layer 1" xmlns="http://www.w3.org/2000/svg" xmlns:xlink="http://www.w3.org/1999/xlink" viewBox="0 0 332.28 268.78"><defs><style>.cls-1{fill:#f18d15;}.cls-2{fill:url(#linear-gradient);}.cls-3{fill:#1d1d1b;}</style><linearGradient id="linear-gradient" x1="95.47" y1="19.35" x2="95.47" y2="257.56" gradientUnits="userSpaceOnUse"><stop offset="0" stop-color="#36a9e1"/><stop offset="1" stop-color="#184183"/></linearGradient></defs><title>JEVA_logo</title><path class="cls-1" d="M187.9,166.7v34.85a49.08,49.08,0,0,1-49.08,49.08h0V45.7A33.28,33.28,0,0,1,172.1,12.42h59.65q21.1,0,37.71,5.89A81.55,81.55,0,0,1,297.6,34.75a70.37,70.37,0,0,1,17.59,25,81,81,0,0,1,6.05,31.5,77.63,77.63,0,0,1-6.05,31.25,64.63,64.63,0,0,1-17.59,23.72,80.89,80.89,0,0,1-28.14,15.13q-16.6,5.33-37.71,5.32Zm0-73.14a33.38,33.38,0,0,0,33.39,33.38h10.46a55.88,55.88,0,0,0,18.08-2.61,33.18,33.18,0,0,0,12.43-7.28,28.43,28.43,0,0,0,7.12-11.21,42.74,42.74,0,0,0,2.29-14.24,47.91,47.91,0,0,0-2.29-14.8,35.15,35.15,0,0,0-7.12-12.6,34.28,34.28,0,0,0-12.43-8.75,45.58,45.58,0,0,0-18.08-3.27H187.9Z"/><path class="cls-2" d="M174.31,19.35h0V182q0,17.58-6,31.63a68.43,68.43,0,0,1-16.55,23.8,72.17,72.17,0,0,1-25,14.93,92.18,92.18,0,0,1-31.23,5.17,109.6,109.6,0,0,1-31.71-4.36A68.37,68.37,0,0,1,38.9,239.88a61,61,0,0,1-16.38-22.59q-5.89-13.64-5.89-32.36H46.15a22.46,22.46,0,0,1,21.28,15.85l0,.13a25.65,25.65,0,0,0,6,10.41A22.49,22.49,0,0,0,83,217a42.88,42.88,0,0,0,12.51,1.69q13.88,0,22.11-9.52T125.89,182V67.76A48.41,48.41,0,0,1,174.31,19.35Z"/><path class="cls-3" d="M150.47,195.52h-51a14,14,0,0,1-14-14V150h4v31.54a10,10,0,0,0,10,10h47a4,4,0,0,1,4,4Z"/><path class="cls-3" d="M93,148.07l-5.53-9.57-8,13.81H90.53A2.82,2.82,0,0,0,93,148.07Z"/><path class="cls-3" d="M219.45,195.52H179.84v-4h39.61a10,10,0,0,0,10-10v-39a4,4,0,0,1,4-4h0v43A14,14,0,0,1,219.45,195.52Z"/><path class="cls-3" d="M177.93,188l-9.58,5.53,13.82,8V190.44A2.83,2.83,0,0,0,177.93,188Z"/><path class="cls-3" d="M233.45,113h-4V82.4a10,10,0,0,0-10-10h-47.1a4,4,0,0,1-4-4h51.1a14,14,0,0,1,14,14Z"/><path class="cls-3" d="M225.92,114.89l5.53,9.57,8-13.82H228.37A2.83,2.83,0,0,0,225.92,114.89Z"/><path class="cls-3" d="M85.45,124.46h0V82.4a14,14,0,0,1,14-14H139v4H99.45a10,10,0,0,0-10,10v38.06A4,4,0,0,1,85.45,124.46Z"/><path class="cls-3" d="M140.89,75.93l9.58-5.53-13.82-8V73.48A2.83,2.83,0,0,0,140.89,75.93Z"/></svg>